<svg xmlns="http://www.w3.org/2000/svg" viewBox="0 0 52 52" fill="none" aria-label="Azhary mark">
  <polygon
    points="26,0 34,9 44,9 44,19 52,26 44,33 44,43 34,43 26,52 18,43 8,43 8,33 0,26 8,19 8,9 18,9"
    fill="#C9A24B"
    opacity="0.18"
  />
  <path
    d="M26 5 L30 13 L38 10 L35 18 L43 21 L35 24 L38 32 L30 29 L26 37 L22 29 L14 32 L17 24 L9 21 L17 18 L14 10 L22 13 Z"
    fill="#C9A24B"
  />
  <rect x="20" y="20" width="12" height="12" rx="1" transform="rotate(45 26 26)" fill="#0B1F3A"/>
</svg>
